<svg width="234" height="14" viewBox="0 0 234 14" fill="none" xmlns="http://www.w3.org/2000/svg">
<path d="M7.362 1.138V11.704C7.374 12.016 7.488 12.28 7.704 12.496C7.932 12.712 8.202 12.82 8.514 12.82H8.73L8.748 13H3.276V12.82H3.51C3.81 12.82 4.068 12.712 4.284 12.496C4.512 12.28 4.638 12.022 4.662 11.722V1.138H2.232C1.68 1.15 1.242 1.324 0.918 1.66C0.594 1.996 0.432 2.434 0.432 2.974V3.19H0.252V0.0579993C0.744 0.261999 1.452 0.37 2.376 0.381999H9.63C10.002 0.381999 10.404 0.345999 10.836 0.274C11.28 0.201999 11.586 0.129999 11.754 0.0579993V3.19H11.574V2.974C11.574 2.23 11.292 1.702 10.728 1.39C10.464 1.234 10.146 1.15 9.774 1.138H7.362ZM24.6963 12.82H24.8943V13H19.9443V12.82H20.1243C20.4003 12.82 20.6343 12.73 20.8263 12.55C21.0183 12.37 21.1143 12.142 21.1143 11.866V7.978H16.3803V11.866C16.3923 12.142 16.4943 12.37 16.6863 12.55C16.8783 12.73 17.1063 12.82 17.3703 12.82H17.5683V13H12.6003V12.82H12.7983C13.0743 12.82 13.3083 12.73 13.5003 12.55C13.6923 12.358 13.7883 12.13 13.7883 11.866V3.334C13.7883 3.07 13.6923 2.848 13.5003 2.668C13.3083 2.476 13.0743 2.38 12.7983 2.38H12.6003V2.2H17.5683V2.38H17.3703C17.1063 2.38 16.8783 2.47 16.6863 2.65C16.4943 2.83 16.3923 3.052 16.3803 3.316V7.258H21.1143V3.334C21.1143 2.962 20.9523 2.686 20.6283 2.506C20.4723 2.422 20.3043 2.38 20.1243 2.38H19.9443V2.2H24.8943V2.38H24.6963C24.4323 2.38 24.2043 2.47 24.0123 2.65C23.8203 2.83 23.7183 3.058 23.7063 3.334V11.884C23.7183 12.256 23.8803 12.526 24.1923 12.694C24.3483 12.778 24.5163 12.82 24.6963 12.82ZM34.4728 13H25.9948V12.82H26.2108C26.4868 12.82 26.7148 12.73 26.8948 12.55C27.0868 12.37 27.1888 12.148 27.2008 11.884V3.316C27.1888 3.052 27.0868 2.83 26.8948 2.65C26.7148 2.47 26.4868 2.38 26.2108 2.38H25.9948V2.2H32.3308C32.6548 2.2 33.0088 2.17 33.3928 2.11C33.7768 2.05 34.0468 1.99 34.2028 1.93V4.792H34.0228V4.63C34.0228 4.102 33.8788 3.688 33.5908 3.388C33.3028 3.088 32.9008 2.932 32.3848 2.92H29.7928V7.294H31.8448C32.2528 7.282 32.5828 7.144 32.8348 6.88C33.0868 6.616 33.2128 6.28 33.2128 5.872V5.746H33.3928V9.562H33.2128V9.436C33.2128 8.872 33.0028 8.464 32.5828 8.212C32.3668 8.08 32.1268 8.014 31.8628 8.014H29.7928V12.28H31.9528C32.6968 12.268 33.3268 12.04 33.8428 11.596C34.3708 11.14 34.7548 10.504 34.9948 9.688H35.1568L34.4728 13ZM42.8154 1.912C44.0994 0.735999 45.8214 0.147999 47.9814 0.147999C50.1534 0.147999 51.8754 0.735999 53.1474 1.912C54.4314 3.088 55.0734 4.684 55.0734 6.7C55.0734 8.716 54.4314 10.312 53.1474 11.488C51.8754 12.664 50.1534 13.252 47.9814 13.252C45.8214 13.252 44.0994 12.664 42.8154 11.488C41.5434 10.312 40.9074 8.716 40.9074 6.7C40.9074 4.684 41.5434 3.088 42.8154 1.912ZM44.9574 10.948C45.7014 11.98 46.7094 12.496 47.9814 12.496C49.2534 12.496 50.2614 11.98 51.0054 10.948C51.7494 9.904 52.1214 8.488 52.1214 6.7C52.1214 4.912 51.7494 3.502 51.0054 2.47C50.2614 1.426 49.2534 0.903999 47.9814 0.903999C46.7094 0.903999 45.7014 1.426 44.9574 2.47C44.2254 3.502 43.8594 4.912 43.8594 6.7C43.8594 8.488 44.2254 9.904 44.9574 10.948ZM56.1413 13V12.82H56.3573C56.6333 12.82 56.8613 12.73 57.0413 12.55C57.2333 12.37 57.3293 12.148 57.3293 11.884V3.334C57.3293 3.07 57.2333 2.848 57.0413 2.668C56.8493 2.476 56.6213 2.38 56.3573 2.38H56.1413V2.2H61.1453V2.38H60.9293C60.6533 2.38 60.4193 2.47 60.2273 2.65C60.0353 2.83 59.9393 3.058 59.9393 3.334V12.28H62.0993C62.8433 12.268 63.4733 12.04 63.9893 11.596C64.5053 11.14 64.8833 10.504 65.1233 9.688H65.3213L64.6193 13H56.1413ZM76.4464 3.64C77.5384 4.588 78.0844 5.908 78.0844 7.6C78.0844 9.292 77.5384 10.618 76.4464 11.578C75.3544 12.526 73.8424 13 71.9104 13H65.8264V12.82H66.0604C66.3364 12.82 66.5704 12.724 66.7624 12.532C66.9544 12.34 67.0564 12.112 67.0684 11.848V3.316C67.0444 3.052 66.9364 2.83 66.7444 2.65C66.5524 2.47 66.3184 2.38 66.0424 2.38H65.8264V2.2H71.9104C73.8424 2.2 75.3544 2.68 76.4464 3.64ZM71.6944 12.28C72.8224 12.28 73.7104 11.866 74.3584 11.038C75.0184 10.21 75.3484 9.064 75.3484 7.6C75.3484 6.136 75.0184 4.99 74.3584 4.162C73.7104 3.322 72.8224 2.902 71.6944 2.902H69.6604V12.28H71.6944ZM95.7433 12.82H96.0313V13H90.6313V12.838H90.9013C91.1053 12.826 91.2793 12.742 91.4233 12.586C91.5673 12.43 91.6273 12.256 91.6033 12.064L90.9013 5.53L87.5173 11.362C87.0733 12.106 86.8453 12.772 86.8333 13.36H86.6533L82.0273 5.584L81.3253 12.064C81.3013 12.256 81.3613 12.436 81.5053 12.604C81.6493 12.76 81.8233 12.838 82.0273 12.838H82.2973V13H78.5353V12.82H78.8233C79.1593 12.82 79.4473 12.718 79.6873 12.514C79.9393 12.31 80.0893 12.034 80.1373 11.686L81.6313 0.147999H81.7933L87.3733 9.328L92.7373 0.147999H92.8993L94.4293 11.686C94.4893 12.034 94.6393 12.31 94.8793 12.514C95.1313 12.718 95.4193 12.82 95.7433 12.82ZM107.842 12.82H107.986V13H102.694V12.82H102.838C103.078 12.82 103.252 12.748 103.36 12.604C103.468 12.46 103.522 12.328 103.522 12.208C103.522 12.088 103.498 11.962 103.45 11.83L102.748 10.174H98.9315L98.2115 11.848C98.1635 11.968 98.1395 12.094 98.1395 12.226C98.1395 12.346 98.1935 12.478 98.3015 12.622C98.4215 12.754 98.6015 12.82 98.8415 12.82H98.9855V13H95.3855V12.82H95.5295C95.7815 12.82 96.0335 12.742 96.2855 12.586C96.5375 12.43 96.7415 12.196 96.8975 11.884L100.624 3.892C101.152 2.704 101.428 1.972 101.452 1.696H101.614L106.438 11.812C106.594 12.16 106.798 12.418 107.05 12.586C107.314 12.742 107.578 12.82 107.842 12.82ZM99.2375 9.472H102.442L100.858 5.71L99.2375 9.472ZM114.266 13.234C112.25 13.222 110.666 12.724 109.514 11.74C108.362 10.744 107.786 9.364 107.786 7.6C107.786 5.836 108.356 4.456 109.496 3.46C110.648 2.464 112.238 1.966 114.266 1.966C115.85 1.966 117.2 2.242 118.316 2.794V5.656H118.19C117.89 4.588 117.428 3.826 116.804 3.37C116.18 2.914 115.394 2.686 114.446 2.686C113.174 2.686 112.202 3.124 111.53 4C110.858 4.864 110.522 6.052 110.522 7.564C110.522 9.064 110.852 10.258 111.512 11.146C112.196 12.058 113.126 12.514 114.302 12.514C115.154 12.514 115.856 12.382 116.408 12.118C116.96 11.854 117.398 11.434 117.722 10.858C118.046 10.27 118.286 9.478 118.442 8.482H118.568L118.784 11.2C118.412 11.812 117.842 12.304 117.074 12.676C116.318 13.048 115.382 13.234 114.266 13.234ZM126.628 0.399999C128.752 0.399999 130.432 0.963999 131.668 2.092C132.904 3.22 133.522 4.756 133.522 6.7C133.522 8.644 132.904 10.18 131.668 11.308C130.432 12.436 128.752 13 126.628 13H120.094V12.82H120.328C120.64 12.82 120.904 12.712 121.12 12.496C121.348 12.268 121.468 11.998 121.48 11.686V1.606C121.48 1.318 121.36 1.078 121.12 0.885999C120.892 0.681999 120.628 0.579999 120.328 0.579999H120.094V0.399999H126.628ZM126.394 12.226C127.258 12.226 128.002 12.004 128.626 11.56C129.262 11.116 129.748 10.48 130.084 9.652C130.42 8.812 130.588 7.9 130.588 6.916C130.588 5.932 130.486 5.098 130.282 4.414C130.09 3.718 129.814 3.13 129.454 2.65C128.71 1.654 127.69 1.156 126.394 1.156H124.18V12.226H126.394ZM134.98 7.6C134.98 5.872 135.556 4.504 136.708 3.496C137.872 2.476 139.414 1.966 141.334 1.966C143.266 1.966 144.814 2.476 145.978 3.496C147.142 4.504 147.724 5.872 147.724 7.6C147.724 9.328 147.142 10.702 145.978 11.722C144.814 12.73 143.272 13.234 141.352 13.234C139.432 13.234 137.89 12.73 136.726 11.722C135.562 10.702 134.98 9.328 134.98 7.6ZM137.734 7.6C137.734 9.112 138.058 10.312 138.706 11.2C139.366 12.076 140.242 12.514 141.334 12.514C142.438 12.514 143.314 12.076 143.962 11.2C144.622 10.312 144.952 9.112 144.952 7.6C144.952 6.088 144.622 4.894 143.962 4.018C143.314 3.13 142.438 2.686 141.334 2.686C140.242 2.686 139.366 3.13 138.706 4.018C138.058 4.894 137.734 6.088 137.734 7.6ZM156.77 2.2H161.828V2.38H161.522C161.246 2.38 161.012 2.464 160.82 2.632C160.64 2.8 160.544 3.016 160.532 3.28V11.146C160.532 11.89 160.58 12.502 160.676 12.982L160.712 13.234H160.55L152.288 5.944V11.902C152.3 12.166 152.396 12.388 152.576 12.568C152.768 12.736 153.002 12.82 153.278 12.82H153.584V13H148.544V12.82H148.832C149.108 12.82 149.342 12.736 149.534 12.568C149.726 12.388 149.822 12.166 149.822 11.902V3.982C149.822 3.262 149.774 2.668 149.678 2.2L149.642 1.948L149.804 1.966L158.048 9.22V3.298C158.048 3.034 157.952 2.818 157.76 2.65C157.58 2.47 157.352 2.38 157.076 2.38H156.77V2.2ZM174.181 12.82H174.325V13H169.033V12.82H169.177C169.417 12.82 169.591 12.748 169.699 12.604C169.807 12.46 169.861 12.328 169.861 12.208C169.861 12.088 169.837 11.962 169.789 11.83L169.087 10.174H165.271L164.551 11.848C164.503 11.968 164.479 12.094 164.479 12.226C164.479 12.346 164.533 12.478 164.641 12.622C164.761 12.754 164.941 12.82 165.181 12.82H165.325V13H161.725V12.82H161.869C162.121 12.82 162.373 12.742 162.625 12.586C162.877 12.43 163.081 12.196 163.237 11.884L166.963 3.892C167.491 2.704 167.767 1.972 167.791 1.696H167.953L172.777 11.812C172.933 12.16 173.137 12.418 173.389 12.586C173.653 12.742 173.917 12.82 174.181 12.82ZM165.577 9.472H168.781L167.197 5.71L165.577 9.472ZM174.389 13V12.82H174.605C174.881 12.82 175.109 12.73 175.289 12.55C175.481 12.37 175.577 12.148 175.577 11.884V3.334C175.577 3.07 175.481 2.848 175.289 2.668C175.097 2.476 174.869 2.38 174.605 2.38H174.389V2.2H179.393V2.38H179.177C178.901 2.38 178.667 2.47 178.475 2.65C178.283 2.83 178.187 3.058 178.187 3.334V12.28H180.347C181.091 12.268 181.721 12.04 182.237 11.596C182.753 11.14 183.131 10.504 183.371 9.688H183.569L182.867 13H174.389ZM194.694 3.64C195.786 4.588 196.332 5.908 196.332 7.6C196.332 9.292 195.786 10.618 194.694 11.578C193.602 12.526 192.09 13 190.158 13H184.074V12.82H184.308C184.584 12.82 184.818 12.724 185.01 12.532C185.202 12.34 185.304 12.112 185.316 11.848V3.316C185.292 3.052 185.184 2.83 184.992 2.65C184.8 2.47 184.566 2.38 184.29 2.38H184.074V2.2H190.158C192.09 2.2 193.602 2.68 194.694 3.64ZM189.942 12.28C191.07 12.28 191.958 11.866 192.606 11.038C193.266 10.21 193.596 9.064 193.596 7.6C193.596 6.136 193.266 4.99 192.606 4.162C191.958 3.322 191.07 2.902 189.942 2.902H187.908V12.28H189.942ZM213.433 12.82H213.577V13H208.285V12.82H208.429C208.669 12.82 208.843 12.748 208.951 12.604C209.059 12.46 209.113 12.328 209.113 12.208C209.113 12.088 209.089 11.962 209.041 11.83L208.339 10.174H204.523L203.803 11.848C203.755 11.968 203.731 12.094 203.731 12.226C203.731 12.346 203.785 12.478 203.893 12.622C204.013 12.754 204.193 12.82 204.433 12.82H204.577V13H200.977V12.82H201.121C201.373 12.82 201.625 12.742 201.877 12.586C202.129 12.43 202.333 12.196 202.489 11.884L206.215 3.892C206.743 2.704 207.019 1.972 207.043 1.696H207.205L212.029 11.812C212.185 12.16 212.389 12.418 212.641 12.586C212.905 12.742 213.169 12.82 213.433 12.82ZM204.829 9.472H208.033L206.449 5.71L204.829 9.472ZM222.731 7.042C222.131 8.086 221.189 8.608 219.905 8.608C219.269 8.608 218.639 8.398 218.015 7.978V7.834C219.215 7.834 219.983 7.222 220.319 5.998C220.391 5.722 220.427 5.5 220.427 5.332C220.427 4.504 220.229 3.892 219.833 3.496C219.437 3.1 218.909 2.902 218.249 2.902H217.439V11.866C217.451 12.25 217.613 12.526 217.925 12.694C218.069 12.778 218.231 12.82 218.411 12.82H218.627V13H213.659V12.82H213.875C214.139 12.82 214.361 12.73 214.541 12.55C214.733 12.37 214.829 12.148 214.829 11.884V3.334C214.829 3.058 214.733 2.83 214.541 2.65C214.361 2.47 214.133 2.38 213.857 2.38H213.641V2.2H218.969C220.349 2.2 221.381 2.476 222.065 3.028C222.797 3.592 223.163 4.366 223.163 5.35C223.163 5.974 223.019 6.538 222.731 7.042ZM233.261 7.042C232.661 8.086 231.719 8.608 230.435 8.608C229.799 8.608 229.169 8.398 228.545 7.978V7.834C229.745 7.834 230.513 7.222 230.849 5.998C230.921 5.722 230.957 5.5 230.957 5.332C230.957 4.504 230.759 3.892 230.363 3.496C229.967 3.1 229.439 2.902 228.779 2.902H227.969V11.866C227.981 12.25 228.143 12.526 228.455 12.694C228.599 12.778 228.761 12.82 228.941 12.82H229.157V13H224.189V12.82H224.405C224.669 12.82 224.891 12.73 225.071 12.55C225.263 12.37 225.359 12.148 225.359 11.884V3.334C225.359 3.058 225.263 2.83 225.071 2.65C224.891 2.47 224.663 2.38 224.387 2.38H224.171V2.2H229.499C230.879 2.2 231.911 2.476 232.595 3.028C233.327 3.592 233.693 4.366 233.693 5.35C233.693 5.974 233.549 6.538 233.261 7.042Z" fill="white"/>
</svg>
